<?xml version="1.0" standalone="no"?> <!DOCTYPE svg PUBLIC "-//W3C//DTD SVG 1.0//EN" "http://www.w3.org/TR/2001/REC-SVG-20010904/DTD/svg10.dtd" > <svg xmlns="http://www.w3.org/2000/svg" width="100%" height="100%">
<defs >
<font id="Sixteen" horiz-adv-x="311" ><font-face
    font-family="Sixteen"
    units-per-em="1000"
    panose-1="2 0 6 3 0 0 0 0 0 0"
    ascent="666"
    descent="-190"
    alphabetic="0" />
<missing-glyph horiz-adv-x="364" d="M66 33H265V633H66V33ZM33 0V666H298V0H33Z" />
<glyph unicode=" " glyph-name="space" horiz-adv-x="300" />
<glyph unicode="!" glyph-name="exclam" horiz-adv-x="123" d="M76 68Q68 58 70 44Q71 32 78 26T97 20L99 22L103 26Q109 35 109 45Q110 55 104 60Q95 67 76 68ZM101 94Q114 91 124 82Q140 68 139 44Q139 26 128 10Q115 -9 99 -10Q74 -12 59 3T40 40Q37 61 48
80T82 106Q88 107 93 104T101 95V94ZM98 531Q94 507 94 484Q93 460 93 426V377Q93 354 90 310T86 246T91 183Q92 177 89 172T79 165T68 167T61 177Q56 223 56 245T59 313T63 377V426Q63 460 64 485T68 535Q69 541 74 545T85 548T95 542T98 531Z" />
<glyph unicode="&quot;" glyph-name="quotedbl" horiz-adv-x="237" d="M60 530Q63 480 63 407Q63 392 48 392T33 407Q33 479 30 528Q30 534 34 539T44 544T55 540T60 530ZM216 516Q208 469 228 400Q230 394 227 389T218 382T207 383T200 392Q177 467 186 520Q187
527 192 530T203 533T213 527T216 516Z" />
<glyph unicode="#" glyph-name="numbersign" horiz-adv-x="473" d="M297 402Q292 462 279 493Q277 499 279 505T287 513T299 513T307 505Q321 469 327 399Q419 387 478 329Q488 318 478 308T456 307Q407 357 329 369Q331 356 332 346L357 157Q375 160 390 163Q447
177 467 203Q476 215 488 206T491 185Q464 151 397 134Q381 130 362 127Q368 86 374 49Q375 43 372 38T362 32T350 34T344 45Q338 82 332 124Q299 121 265 122Q208 123 158 135Q164 80 173 38Q174 32 171 27T161 21T150 22T143 32Q134 79 127 143Q65 161 39 192Q29
204 40 213T61 212Q79 191 123 175Q116 257 114 336Q79 321 48 301Q36 292 28 304T32 325Q69 350 114 368Q114 449 122 504Q123 510 128 514T139 517T149 511T152 500Q145 451 144 379Q200 398 255 401Q276 403 297 402ZM299 372Q279 373 257 371Q201 368 144 348Q145
258 154 166Q206 154 266 152Q297 151 327 154L302 342Q300 355 299 372Z" />
<glyph unicode="$" glyph-name="dollar" horiz-adv-x="387" d="M206 331Q207 360 210 417T214 502Q189 499 170 486Q136 463 132 414Q129 376 154 356Q170 344 206 331ZM236 289Q236 282 240 96V31Q279 31 309 50T351 105Q361 136 348 186Q338 229 310 251T236
289ZM241 618Q245 580 245 533Q246 532 248 532Q299 527 339 495T380 415Q380 400 365 400T350 415Q350 448 319 473T245 502L244 503Q244 472 241 411T236 321Q262 312 279 304T319 282T355 245T378 194Q392 135 379 95Q364 49 326 25T240 1Q239 -67 233 -123Q232
-129 228 -133T217 -136T206 -131T203 -119Q209 -64 210 3Q189 6 169 14Q102 39 69 100T64 246Q66 252 71 254T83 255T91 248T92 236Q69 165 96 114T180 42Q195 36 210 34V95Q206 284 206 300Q157 316 136 332Q98 362 102 416Q107 480 153 511Q179 529 215 533Q215
577 211 614Q210 621 214 625T224 631T235 628T241 618Z" />
<glyph unicode="%" glyph-name="percent" horiz-adv-x="607" d="M120 473Q114 474 108 473Q90 469 80 439Q68 408 73 369T101 311Q118 296 137 305Q157 314 168 340Q175 359 175 378T164 419T127 456Q118 462 120 473ZM183 445Q202 418 205 386T196 328Q180 291
149 277Q113 261 81 289Q51 315 44 364T51 449Q68 494 102 502Q140 511 182 464Q190 455 183 445ZM473 200Q449 187 443 161T448 107Q460 77 484 63T537 57Q578 71 582 113T551 182Q527 200 473 200ZM549 218Q560 213 569 206Q599 184 609 148T603 77T547 29Q505
14 471 35T420 96Q407 125 412 161T445 218Q447 230 460 230H467Q490 240 509 237Q527 235 547 220L549 218ZM499 525Q485 512 474 497T448 456L427 419L265 160Q253 140 229 87Q206 36 191 11Q183 -2 170 6T165 27Q179 50 201 99Q225 153 239 176L401 435Q405
441 421 469T450 514T479 547Q490 557 500 546T499 525Z" />
<glyph unicode="&amp;" glyph-name="ampersand" horiz-adv-x="634" d="M239 151L238 153Q238 152 239 151ZM236 159L235 161L227 192Q224 201 200 308Q199 314 202 319T212 326Q225 329 229 316Q231 320 232 324Q246 357 286 379Q333 405 372 377Q402 356 424
303Q453 236 466 132Q467 126 463 121T453 115T442 118T436 128Q424 228 397 292Q378 336 355 353Q331 370 300 353T260 312Q246 278 255 222Q257 210 265 173Q272 139 274 124V122V120Q274 117 272 114Q268 107 261 106T249 110Q247 112 245 115Q245 116 244 117Q244
119 243 123Q242 128 240 135L236 156V159ZM54 218Q121 245 154 265Q167 273 175 260T170 239Q135 218 66 190Q60 188 54 190T46 198T46 210T54 218ZM474 330Q520 330 577 341Q583 342 588 339T595 329T593 318T583 311Q523 300 474 300Q459 300 459 315T474 330Z"
/>
<glyph unicode="&apos;" glyph-name="quotesingle" horiz-adv-x="94" d="M58 524Q47 492 51 456T72 383Q78 369 64 363T44 371Q33 397 27 422Q20 449 20 480T30 536Q36 550 50 544T58 524Z" />
<glyph unicode="(" glyph-name="parenleft" horiz-adv-x="195" d="M202 519Q130 478 96 320Q82 254 80 186Q78 118 87 78Q95 35 127 -32Q161 -103 190 -128Q201 -137 192 -148T170 -150Q137 -122 100 -45Q67 24 57 72Q48 116 50 187T66 326Q102 498 188 545Q201
552 208 539T202 519Z" />
<glyph unicode=")" glyph-name="parenright" horiz-adv-x="170" d="M76 526Q134 475 163 388T193 201Q194 102 166 13Q139 -75 88 -131Q78 -142 67 -132T66 -111Q112 -60 138 23Q163 107 163 201Q163 296 136 377T56 504Q45 514 55 525T76 526Z" />
<glyph unicode="*" glyph-name="asterisk" horiz-adv-x="263" d="M63 485Q105 440 137 440L141 442Q147 477 130 552Q129 558 132 563T142 569T153 568T160 558Q176 488 173 450Q184 456 210 472L249 495Q262 502 269 489T263 469Q252 463 234 452L201 432Q187
424 175 419Q177 417 186 409T198 398L209 388L222 376L232 364Q238 358 242 352T251 340Q259 328 247 320T225 324Q221 330 216 336T207 348T194 360L182 372Q179 375 170 383T157 395L143 372Q135 360 128 352L108 325L87 298Q78 286 66 295T63 316L86 345L106
372Q112 380 119 391T131 411Q89 413 41 465Q31 476 42 486T63 485Z" />
<glyph unicode="+" glyph-name="plus" horiz-adv-x="891" d="M376 370Q394 399 427 423Q484 463 529 444Q570 427 581 371Q592 319 568 259T485 159Q440 128 387 123Q383 123 378 125Q377 125 375 126Q313 148 276 176Q238 206 217 236Q197 267 196 311Q195 365
227 392Q256 416 298 411Q345 405 376 370ZM372 298H371Q364 299 360 303T357 314Q358 326 361 338Q341 376 295 381Q265 385 246 369Q225 351 226 311Q227 277 243 252T294 200Q326 175 385 154Q386 154 387 153Q431 158 467 183Q519 219 540 270Q561 322 552
365Q544 405 517 416Q488 429 445 399Q407 372 394 340Q400 323 400 305Q400 299 396 295T385 290Q376 290 372 298ZM126 404Q126 358 140 265Q155 165 155 122Q155 107 140 107T125 122Q125 169 111 261Q96 360 96 404Q96 419 111 419T126 404ZM642 450Q647 380
667 300Q668 292 672 274L678 247Q685 217 694 202Q722 161 760 174Q777 179 792 195T815 232Q833 286 830 354T807 477Q805 483 807 488T816 496T827 496T835 487Q857 428 860 356T843 222Q833 194 813 174T769 145Q742 136 716 146T670 186Q657 205 648 240Q646
249 643 267T637 292Q617 376 612 448Q612 454 616 459T626 464T637 460T642 450ZM62 16Q94 25 158 48Q220 70 256 80Q346 104 457 116Q570 128 694 120T896 77Q910 71 904 57T884 49Q811 82 692 89T461 86T264 52Q231 43 168 20Q101 -5 70 -12Q64 -14 59 -11T52
-2T53 9T62 16Z" />
<glyph unicode="," glyph-name="comma" horiz-adv-x="110" d="M78 92Q108 45 108 -12Q107 -79 57 -110Q44 -118 36 -105T41 -84Q77 -62 78 -11Q78 36 52 76Q44 88 56 96T78 92Z" />
<glyph unicode="-" glyph-name="hyphen" horiz-adv-x="222" d="M21 209Q49 205 82 205T157 206T221 208Q236 208 236 193T221 178Q202 178 159 177T81 175T17 179Q11 180 7 185T4 196T10 206T21 209Z" />
<glyph unicode="." glyph-name="period" horiz-adv-x="108" d="M61 60Q48 56 46 42Q45 38 47 36Q50 33 59 33Q66 33 71 37T76 48Q76 52 73 55Q69 59 61 60ZM66 89Q83 87 93 77Q107 65 106 46Q105 29 92 16T59 3Q37 3 25 16Q14 28 16 46Q20 71 42 84Q46 90 54 90H59Q63
90 66 89Z" />
<glyph unicode="/" glyph-name="slash" horiz-adv-x="184" d="M11 19Q18 43 39 103L67 184Q72 204 89 262L115 349Q124 378 140 424Q154 467 170 506Q172 511 178 513T189 514T197 506T198 494Q183 458 168 413T144 340L118 254L95 176Q87 147 67 92L39 11Q38
5 33 2T21 0T12 7T11 19Z" />
<glyph unicode="0" glyph-name="zero" horiz-adv-x="365" d="M230 532H234Q310 512 350 419Q386 336 378 234Q370 129 321 67Q262 -6 170 14Q76 35 41 173Q28 225 27 285Q25 345 33 381Q40 413 59 445T107 501Q167 552 230 532ZM277 463L254 483Q237 497 234 498Q181
524 126 478Q102 458 85 430T63 375Q55 342 56 286Q57 231 70 180Q101 60 176 44Q250 28 297 86Q341 141 348 237Q355 331 323 407Q310 438 291 460Q283 457 277 463Z" />
<glyph unicode="1" glyph-name="one" horiz-adv-x="354" d="M182 501Q181 507 180 505Q180 504 180 503T182 501ZM54 364Q85 361 110 388Q128 406 150 450Q168 486 174 500L177 510Q178 515 179 517T183 522Q190 528 198 525Q203 524 206 519Q208 517 208 515Q215
492 211 449L207 416Q204 398 204 389Q203 376 199 308T194 212T196 135T210 48Q290 52 356 40Q362 39 365 34T368 22T362 13T350 10Q322 15 294 17T233 19T180 16T118 10T59 4Q53 3 49 7T43 17T46 28T57 34Q71 35 113 39T179 46Q169 85 166 136T163 215T168 311T174
391L177 420Q180 440 180 443L176 436Q152 389 132 367Q96 330 52 334Q45 335 41 339T38 350T43 361T54 364Z" />
<glyph unicode="2" glyph-name="two" horiz-adv-x="372" d="M285 181Q239 221 185 218Q136 216 111 189Q100 177 90 154T77 108Q69 55 105 45Q131 38 174 59Q245 92 285 181ZM64 427Q79 466 108 493T174 529Q212 538 247 523T308 467Q338 417 343 351T332 224Q327
206 320 189L334 173Q390 101 390 12Q390 -3 375 -3T360 12Q360 91 310 154L307 158Q262 68 186 31Q134 7 97 17Q64 25 53 52T47 112Q51 139 63 166T89 209Q122 245 183 248Q245 251 296 211Q300 221 303 232Q319 290 314 348Q309 408 282 451Q243 515 181 500Q152
494 128 472T92 417Q90 411 84 409T73 408T65 416T64 427Z" />
<glyph unicode="3" glyph-name="three" horiz-adv-x="384" d="M70 421Q76 460 111 488T192 524Q238 533 278 516T330 453Q351 372 288 320Q327 312 356 289Q389 262 402 223T405 134Q389 70 330 40T203 16Q134 24 92 66Q45 114 57 187Q58 194 63 197T74 200T84
194T87 183Q77 124 114 87Q148 53 206 47T314 66Q363 91 375 142Q394 220 337 265Q300 295 247 295Q218 282 177 273Q176 273 175 273T172 271T167 269Q161 267 157 266Q146 265 141 275Q138 282 142 290Q146 297 155 303L171 310Q184 315 197 319Q218 324 240
325Q322 364 300 445Q292 476 264 489T197 495T132 466T100 417Q99 411 94 407T83 404T73 410T70 421Z" />
<glyph unicode="4" glyph-name="four" horiz-adv-x="341" d="M282 154Q275 204 273 235Q271 274 271 382Q271 449 269 489Q178 389 132 300Q96 230 104 192Q113 151 182 148Q240 146 282 154ZM296 528Q301 474 301 382Q301 274 303 237Q304 206 311 161Q328 166
342 173T362 167T356 147Q337 137 315 131L316 127Q326 55 326 13Q326 -2 311 -2T296 13Q296 52 286 122V124Q241 116 180 118Q88 122 75 185Q65 234 106 314Q136 371 183 432T266 531Q269 541 280 542Q286 543 290 539T296 528Z" />
<glyph unicode="5" glyph-name="five" horiz-adv-x="411" d="M364 495Q270 498 230 494Q188 491 161 483Q131 474 121 459Q110 443 107 406Q106 396 106 384V362V343V310Q107 301 107 294L122 307Q167 343 186 349Q238 366 288 349T374 290Q409 249 421 199T416
94Q396 41 331 18Q273 -3 203 6Q132 16 82 54T33 156Q33 162 37 166T48 170T59 166T63 154Q61 108 102 77T207 36Q269 28 320 46Q373 65 388 104Q403 148 393 191T351 270T279 319T196 321Q183 316 141 283L112 260L103 252Q100 250 99 249Q96 247 92 246Q85 245
79 249T72 261Q72 265 74 271Q75 276 76 278Q77 290 76 310V343V363V385Q76 398 77 408Q80 453 97 477Q113 499 152 511Q183 521 228 524Q269 528 364 525Q371 525 375 521T379 510T375 499T364 495Z" />
<glyph unicode="6" glyph-name="six" horiz-adv-x="372" d="M112 152L116 138Q146 52 226 35Q265 26 299 45T356 102Q378 140 382 182T369 259Q352 291 323 306T260 321T194 304T141 260Q119 231 119 165Q119 156 112 152ZM345 484Q263 519 197 466Q136 416 112
317Q104 284 102 252Q108 266 117 278Q142 311 180 330T259 351Q301 352 337 333T395 273Q417 228 412 179T382 87Q355 42 313 18T220 5Q124 27 88 128Q56 217 83 324Q109 433 178 489Q258 554 357 512Q371 506 365 492T345 484Z" />
<glyph unicode="7" glyph-name="seven" horiz-adv-x="373" d="M138 290Q172 289 230 291Q241 323 258 356Q294 428 323 464Q324 464 339 479Q333 478 303 475T261 470T222 467T178 466T139 469T96 476T59 488Q45 494 51 508T71 516Q90 508 113 504T153 497T202
496T246 499T296 504T339 509Q341 509 347 511Q356 514 358 514Q382 520 391 502Q393 497 391 491Q391 490 390 488Q389 488 389 487Q388 486 388 485L386 484L381 479L367 464L347 444Q319 411 284 342Q272 318 263 293Q303 295 329 295Q344 295 344 280T329 265Q302
265 252 263Q217 144 257 29Q259 23 257 18T248 10T237 10T229 19Q187 139 221 261Q170 259 136 260Q130 260 126 264T122 275T126 286T138 290Z" />
<glyph unicode="8" glyph-name="eight" horiz-adv-x="366" d="M197 296Q166 286 143 262T107 207Q87 160 103 115T167 55Q220 40 277 62Q337 86 348 136T318 242Q284 288 242 296Q219 292 197 296ZM294 306Q321 288 342 260Q364 230 374 196T378 130Q363 63 288
34Q222 8 159 27Q126 36 105 57T75 105T68 161T79 217Q102 279 156 310Q144 316 133 325Q80 367 86 422Q92 470 137 503Q169 525 206 530Q208 542 220 543Q265 546 305 499Q343 450 341 405T304 328Q299 323 293 319Q296 313 295 307Q294 307 294 306ZM297 454Q281
482 255 493T204 500T155 478Q120 453 116 419Q112 380 151 349Q172 332 196 327Q223 334 253 331Q270 338 283 350Q303 369 308 394T302 449Q299 451 297 454Z" />
<glyph unicode="9" glyph-name="nine" horiz-adv-x="306" d="M292 322Q291 398 291 454Q285 471 274 482Q249 509 207 504Q162 499 125 462T82 366Q75 299 103 259T175 212Q215 206 249 234T292 322ZM321 374Q321 358 322 339Q323 336 323 332Q322 326 322 320Q324
58 324 16Q324 1 309 1T294 16Q294 90 292 239Q271 206 239 192T171 183Q115 190 80 241T52 370Q59 439 103 483T203 534Q261 541 296 503Q309 489 317 470Q321 466 321 460V459Q331 426 326 383Q325 378 321 374Z" />
<glyph unicode=":" glyph-name="colon" horiz-adv-x="115" d="M37 361Q36 369 41 375Q64 400 85 398Q105 396 114 373Q121 357 119 339Q117 316 104 308Q84 299 69 304T44 324Q33 342 37 361ZM71 48Q75 35 84 25Q90 18 95 17Q96 17 98 19Q104 27 102 39Q99 52
90 61Q84 67 81 65Q75 63 71 48ZM50 75Q58 88 69 93Q90 102 110 83Q126 68 131 45Q137 19 122 1Q108 -16 88 -12Q74 -9 61 5Q51 17 45 32Q37 38 39 47L40 49Q38 56 39 62Q40 73 50 75ZM72 363Q61 354 70 340Q78 328 88 334Q87 334 88 338L89 341Q90 353 86 362L82
368Q79 368 73 364L72 363Z" />
<glyph unicode=";" glyph-name="semicolon" horiz-adv-x="126" d="M82 361Q83 334 90 329Q94 327 103 334Q115 344 117 356Q117 359 116 360T111 362Q93 366 90 366Q89 365 82 361ZM52 364Q47 375 58 382Q78 394 83 395Q93 397 117 392Q134 388 141 376Q148 365
146 351Q143 328 122 311Q97 290 75 304Q53 317 52 364ZM75 91Q120 59 126 7Q132 -50 82 -80Q69 -88 61 -75T66 -54Q100 -34 96 4T57 67Q45 76 54 88T75 91Z" />
<glyph unicode="&lt;" glyph-name="less" horiz-adv-x="387" d="M360 402L291 361L227 325L154 286L87 250Q83 248 76 245H75Q86 239 105 230Q141 215 208 192L281 168L354 144Q382 134 393 129Q407 122 401 109T381 101Q371 106 344 115L272 139L198 164Q128
188 93 203Q70 213 58 221Q50 226 45 230Q38 237 37 245Q35 264 57 271Q58 272 67 274Q72 275 73 276L140 312L212 350L276 386Q313 408 344 428Q357 436 365 423T360 402Z" />
<glyph unicode="=" glyph-name="equal" horiz-adv-x="356" d="M31 350Q65 361 112 366T189 371T280 371T355 370Q370 370 370 355T355 340Q339 340 279 341T191 342T117 336T39 322Q33 320 28 323T21 332T22 343T31 350ZM29 178Q85 188 207 188T351 190Q357 190
362 186T367 176T363 165T353 160Q325 158 207 158T35 148Q28 147 23 150T17 160T19 172T29 178Z" />
<glyph unicode="&gt;" glyph-name="greater" horiz-adv-x="370" d="M91 413Q165 392 275 337Q327 311 369 287H370Q373 286 377 285Q383 283 386 280Q391 275 391 269T387 256L383 253L382 252H381L377 250L365 245L327 230L289 215L276 210L271 208Q125 134 81
105Q69 97 61 109T65 131Q110 160 257 234L265 238L278 243L316 258L342 268Q305 289 261 311Q154 364 83 385Q77 386 74 391T72 403T79 412T91 413Z" />
<glyph unicode="?" glyph-name="question" horiz-adv-x="331" d="M155 76Q151 70 150 61Q148 46 153 36T166 25Q188 21 200 29Q207 33 207 41Q206 51 195 61T159 75Q157 75 155 76ZM195 96Q236 78 237 42Q237 17 216 3Q195 -10 162 -5Q138 -1 128 20T120 64Q123
89 138 103Q156 121 183 115Q190 113 193 108T195 97V96ZM32 420Q43 459 85 485T180 518Q233 525 278 509T339 448Q353 407 339 361T285 295Q263 284 230 284T176 290Q176 275 178 249Q182 197 185 177Q186 171 182 166T172 160T161 163T155 173Q152 194 148 247Q146
274 146 290Q145 300 145 305Q145 309 146 311V314Q148 319 151 322Q162 332 177 323Q181 321 182 320V319Q201 313 228 313T271 321Q299 335 310 371T311 438Q301 468 266 481T184 489Q138 483 104 462T62 412Q60 406 55 403T43 401T34 408T32 420Z" />
<glyph unicode="@" glyph-name="at" horiz-adv-x="661" d="M470 233Q469 240 466 246Q454 275 429 302T376 340Q334 353 305 341T256 295Q236 262 234 223T247 150Q259 126 283 111T338 92Q392 85 426 119Q457 149 469 207Q470 209 470 224V233ZM488 164Q473 123
447 97Q402 54 334 62Q298 67 267 86T221 136Q201 178 204 225T230 310Q245 337 268 354T321 376T386 368Q420 355 450 324T494 258V257Q501 254 502 250L504 246V245V244V243V239Q505 233 505 227Q508 206 512 188Q526 134 553 124T603 145Q624 174 630 212Q646
309 582 380Q518 452 415 473Q367 486 317 480T224 456T146 400T94 308Q54 184 103 86Q152 -12 273 -61Q350 -92 412 -81Q440 -76 519 -40Q548 -27 553 -24Q562 -21 583 -10T613 10T633 32T651 61Q653 66 659 68T670 69T678 61T679 49Q670 27 655 10T619 -22T582
-43T541 -63Q534 -66 531 -68Q529 -69 511 -77L487 -88Q481 -91 467 -96T441 -105T418 -111Q347 -124 261 -89Q130 -36 76 73T66 318Q81 366 110 403T174 463T251 498T335 511T421 503Q474 492 520 466T601 403T653 315Q669 264 660 208Q653 162 627 127Q591 78
543 96Q506 109 488 164Z" />
<glyph unicode="A" glyph-name="A" horiz-adv-x="429" d="M43 5Q21 108 34 249Q48 409 102 480Q132 520 173 530T250 523Q286 509 316 479T365 413Q395 353 411 232Q429 90 423 1Q423 -5 418 -9T407 -13T397 -8T393 3Q398 75 387 176Q318 152 218 145Q113 137
60 160Q60 73 73 11Q74 5 71 0T61 -6T50 -5T43 5ZM61 192Q106 167 216 175Q312 182 379 205Q381 206 384 206L381 228Q365 346 339 399Q323 431 296 457T239 495Q172 522 126 462Q77 397 64 246Q61 220 60 193L61 192Z" />
<glyph unicode="B" glyph-name="B" horiz-adv-x="429" d="M301 296Q315 292 322 288Q375 255 405 197Q441 128 413 72Q393 31 330 11Q277 -6 211 -4Q146 -1 100 17Q44 40 42 77Q42 80 43 83Q41 96 38 152Q35 209 32 283Q29 360 28 411Q27 439 28 455V469Q28 472
29 474Q29 479 31 481Q41 499 62 516Q90 539 148 541Q201 543 258 528Q318 512 357 483Q404 449 406 407Q409 338 311 300L301 296ZM58 468V467V455Q57 439 58 412Q59 360 62 284Q64 212 68 154Q71 95 73 89Q74 84 72 79Q73 60 111 45Q152 28 212 26Q274 24 321
40Q372 56 387 86Q408 128 379 183Q352 234 306 262Q297 268 265 274Q250 277 233 279Q202 273 170 270Q145 268 99 269H96Q95 269 93 269T88 267H77Q67 269 65 280Q63 288 69 294Q82 309 122 313Q153 316 196 313Q214 312 232 309Q271 317 300 328Q378 358 376
405Q375 434 340 459T250 499Q197 513 149 511T80 492Q65 480 58 468Z" />
<glyph unicode="C" glyph-name="C" horiz-adv-x="422" d="M369 397Q366 423 348 447T303 488Q243 524 192 496Q145 470 115 420T74 310Q60 226 72 168Q85 101 128 63T226 22Q281 20 328 58T398 172Q399 178 404 181T416 183T425 176T426 164Q402 78 347 34T225
-8Q160 -6 109 39T42 162Q29 225 44 314Q55 379 89 435T178 522Q214 540 249 537T318 514Q351 495 373 465T399 401Q400 395 396 390T386 384T375 387T369 397Z" />
<glyph unicode="D" glyph-name="D" horiz-adv-x="436" d="M77 503Q78 461 82 357T88 176T91 29Q156 27 233 57Q298 82 339 120Q381 159 395 206Q427 306 337 418Q297 468 232 492T101 507Q81 504 77 503ZM35 508Q39 513 43 517T52 525T60 529T70 532T79 534T88
536T97 537Q170 547 242 520T361 436Q460 312 424 197Q407 142 361 99T243 29Q157 -5 83 0Q80 -2 76 -2Q71 -2 67 1Q56 2 45 4Q39 6 36 11T33 22T40 31T51 34L61 32Q61 100 59 170T53 346T48 485Q44 485 40 487Q27 495 35 508Z" />
<glyph unicode="E" glyph-name="E" horiz-adv-x="408" d="M57 297Q87 294 126 292T184 290H260H322Q337 290 337 275T322 260H270H214Q193 260 163 260T105 262T53 267H52Q49 191 55 143Q64 86 85 66Q120 34 234 33Q267 32 330 35Q394 38 410 38Q425 38 425 23T410
8Q394 8 331 5Q269 2 234 3Q108 4 65 44Q35 71 26 138Q18 189 22 271Q24 320 32 407Q39 486 39 508Q39 519 49 522Q54 526 60 526Q88 524 117 524T183 524T239 527T305 530T364 534Q370 534 375 530T380 520T376 509T366 504Q352 503 310 501T246 497T190 495T126
494T69 495Q68 471 62 404Q54 314 53 297H57Z" />
<glyph unicode="F" glyph-name="F" horiz-adv-x="381" d="M81 15Q57 62 46 137T33 279Q33 286 32 312T31 354T34 391T43 429Q72 505 197 525Q276 537 381 526Q387 525 391 521T394 510T389 499T377 496Q277 507 201 495Q94 478 71 419Q65 404 63 386Q61 367 61
354T62 315T63 279V274Q74 278 87 282L110 288Q121 291 136 293T160 296T185 299T209 300T236 301H260H284H307Q322 301 322 286T307 271H291Q239 271 211 270T139 263T64 242Q72 99 107 29Q114 15 101 9T81 15Z" />
<glyph unicode="G" glyph-name="G" horiz-adv-x="480" d="M226 132Q243 158 274 175T339 198Q377 204 410 192T462 149Q492 100 476 7Q475 1 470 -2T459 -5T449 1T446 13Q460 94 436 133Q430 144 421 151Q395 72 341 31T223 -8Q158 -6 107 39T40 162Q27 225 42
314Q53 379 87 435T176 522Q212 540 247 537T316 514Q349 495 371 465T397 401Q398 395 394 390T384 384T373 387T367 397Q364 423 346 447T301 488Q241 524 190 496Q143 470 113 420T72 310Q58 226 70 168Q83 101 126 63T224 22Q277 20 324 56T394 166Q371 173
344 169Q315 165 290 150T250 116Q242 103 230 111T226 132Z" />
<glyph unicode="H" glyph-name="H" horiz-adv-x="428" d="M382 530Q454 248 406 5Q404 -1 399 -4T388 -7T379 0T376 11Q400 131 393 263Q391 262 388 262Q364 262 337 262T275 264T223 265Q124 267 59 262H57Q60 126 89 2Q90 -4 87 -9T77 -15T66 -14T59 -4Q0 247
49 533Q50 539 55 542T66 545T76 539T79 527Q58 410 57 292Q124 297 223 295Q242 295 275 294T336 293T388 292H392Q383 404 352 522Q351 528 354 533T363 540T374 539T382 530Z" />
<glyph unicode="I" glyph-name="I" horiz-adv-x="84" d="M69 525Q60 432 68 272Q78 61 78 15Q78 0 63 0T48 15Q48 60 38 270Q30 432 39 527Q40 534 44 538T55 541T66 536T69 525Z" />
<glyph unicode="J" glyph-name="J" horiz-adv-x="350" d="M322 525Q324 503 332 440T343 343T345 255T333 158Q322 113 300 72Q268 12 220 -6Q177 -22 131 1Q89 21 60 66T24 164Q23 171 27 175T37 181T48 178T54 168Q59 122 84 83T144 28Q178 11 210 22Q247 36
274 86Q294 124 304 165T315 256T313 339T303 435L292 523Q291 529 295 533T305 539T316 536T322 525Z" />
<glyph unicode="K" glyph-name="K" horiz-adv-x="419" d="M143 349Q195 357 242 350Q344 335 389 216Q421 132 421 16Q421 1 406 1T391 16Q391 128 361 206Q322 308 238 320Q167 330 102 310Q98 309 73 294Q66 289 60 286V269Q60 100 94 31Q101 17 88 11T68 17Q30
93 30 269V279Q21 282 19 291Q18 297 22 303Q23 304 25 305T30 309Q34 447 58 522Q60 528 65 531T76 532T85 525T86 514Q66 449 61 329Q63 331 82 343T110 362Q147 389 202 447T275 522Q286 532 296 521T295 500Q278 484 227 430T143 349Z" />
<glyph unicode="L" glyph-name="L" horiz-adv-x="370" d="M72 525Q72 501 68 420Q65 344 64 297Q62 220 65 173Q68 115 79 93Q109 27 203 25Q277 24 364 59Q370 61 376 59T384 51T384 39T376 31Q282 -6 203 -5Q90 -3 51 81Q39 108 35 171Q32 220 34 298Q35 344
38 421Q42 501 42 525Q42 540 57 540T72 525Z" />
<glyph unicode="M" glyph-name="M" horiz-adv-x="500" d="M468 517Q460 401 468 253Q473 164 483 108Q494 41 512 17Q521 5 509 -4T488 -1Q466 29 453 103Q443 163 438 252Q435 306 435 366Q429 350 423 336Q388 256 343 228Q320 214 303 211H264Q211 212 165
241T85 317Q70 339 59 363Q60 327 61 279Q62 246 64 178T68 70T68 8Q68 2 64 -2T53 -6T42 -2T38 10Q39 31 38 70T35 178Q32 243 31 278Q28 371 30 428Q31 464 33 485Q34 492 35 498Q37 511 39 522Q41 528 46 531T57 534Q64 532 67 526Q74 518 69 509Q67 505 65
494Q57 411 110 334Q139 292 179 267T264 241H298Q310 243 327 254Q364 277 395 348Q413 390 436 470V471Q437 498 438 519Q438 525 443 529T454 533T464 528T468 517Z" />
<glyph unicode="N" glyph-name="N" horiz-adv-x="442" d="M69 522L70 530Q72 536 77 539T88 542T97 535T100 524Q94 497 89 469Q89 461 89 444T90 420Q92 292 150 179Q164 153 193 117T255 56Q293 28 322 26Q353 24 374 57Q393 85 403 180Q407 219 405 331Q402
466 381 535Q379 540 382 545T390 553T401 552T409 543Q432 472 435 331Q438 216 433 176Q422 75 400 41Q369 -7 320 -4Q282 -2 237 32Q202 59 171 98T124 165Q88 235 72 306Q67 167 90 16Q91 10 87 5T77 -1T66 2T60 12Q23 259 59 473Q60 500 69 522Z" />
<glyph unicode="O" glyph-name="O" horiz-adv-x="444" d="M295 497Q286 502 278 503Q202 520 145 475T65 348Q52 294 54 242T81 140Q107 92 151 63Q248 -2 331 50Q368 73 393 116T425 215Q445 370 295 497ZM354 483Q474 359 455 211Q447 150 419 101T347 25Q304
-4 248 -2T135 37Q96 63 70 101T34 182T23 269T36 356Q62 446 128 499T284 533Q296 530 309 523L313 521Q320 517 331 510T347 500Q358 494 354 483Z" />
<glyph unicode="P" glyph-name="P" horiz-adv-x="375" d="M59 212Q59 201 60 127T62 13Q62 -2 47 -2T32 13Q32 42 30 182T30 352Q31 378 36 441Q41 496 41 527Q41 542 56 542T71 527V525V524Q121 543 186 537T304 504Q367 471 384 422Q405 365 356 303Q303 236
187 214Q117 201 59 212ZM59 242Q112 231 181 244Q286 264 332 321Q371 370 356 412Q343 450 290 477Q239 503 177 507T75 493Q72 491 70 491Q69 470 66 438Q61 376 60 352Q58 303 59 242Z" />
<glyph unicode="Q" glyph-name="Q" horiz-adv-x="503" d="M420 104Q391 51 346 23Q303 -6 247 -4T134 35Q95 61 69 99T33 180T22 267T35 354Q61 444 127 497T283 531Q295 528 308 521L312 519Q319 515 330 508T346 498Q357 492 353 481Q473 357 454 209Q449 168
434 131Q467 108 489 72T516 -3Q517 -9 513 -14T503 -20T492 -17T486 -7Q477 61 420 104ZM303 160Q356 172 407 147Q420 178 424 213Q444 368 294 495Q285 500 277 501Q201 518 144 473T64 346Q51 292 53 240T81 138Q106 90 150 61Q247 -4 330 48Q369 73 395 119Q352
140 309 130Q303 129 298 132T292 142T293 153T303 160Z" />
<glyph unicode="R" glyph-name="R" horiz-adv-x="427" d="M143 289Q115 278 98 274Q96 273 91 271T82 269Q79 268 77 267Q77 214 68 20Q68 14 63 10T52 6T42 11T38 22Q48 240 47 309Q47 327 42 412Q39 463 39 497Q34 499 33 504Q29 517 40 523Q45 531 54 531Q59
531 62 528Q139 545 216 532Q271 523 300 499Q337 468 327 417Q318 373 258 338Q243 330 226 322Q333 314 380 234Q420 165 420 19Q420 4 405 4T390 19Q390 157 354 219Q307 299 184 292Q158 291 143 289ZM136 318L156 326Q217 349 243 364Q291 392 297 423Q304
456 280 476Q258 495 211 503Q140 514 69 499Q68 467 72 413Q77 333 77 309V303Q95 312 123 317Q129 317 136 318Z" />
<glyph unicode="S" glyph-name="S" horiz-adv-x="405" d="M106 385Q151 414 198 457T270 535Q278 548 290 540T294 519Q261 469 192 411Q228 417 254 411Q295 401 326 370T377 296Q395 255 398 211T389 128Q373 83 335 52T247 9Q202 -5 152 6Q102 16 68 49Q47
69 25 123Q23 129 25 135T33 143T45 143T53 135Q73 86 88 71Q116 43 158 35T240 38Q282 48 315 74T361 138Q372 170 369 208T349 284Q333 322 307 348T248 381Q205 391 135 364Q127 362 120 359Q105 349 92 343Q91 342 89 341Q83 336 83 335Q77 331 72 330Q59 327
52 337Q47 344 50 352Q51 354 53 356Q54 358 56 359L60 362Q66 366 75 371L106 385Z" />
<glyph unicode="T" glyph-name="T" horiz-adv-x="422" d="M238 477Q255 425 252 248Q252 202 249 118T246 8Q246 -7 231 -7T216 8Q216 33 219 117T222 248Q225 421 210 467Q208 472 210 477Q79 470 19 498Q6 505 12 518T33 526Q91 497 234 508Q370 519 433 550Q447
557 453 544T447 524Q379 490 238 478V477Z" />
<glyph unicode="U" glyph-name="U" horiz-adv-x="430" d="M116 523Q110 516 105 508T95 487L88 466Q85 458 81 442T76 420T71 396T67 374Q45 269 64 196T120 82T206 33Q282 20 336 81Q399 153 394 291Q390 393 337 494Q330 507 343 514T363 508Q420 401 424 293Q430
142 359 61Q327 25 286 11T201 4Q142 15 98 62T35 189T37 380L42 404L49 434Q50 441 55 462T65 493T77 518T94 543Q103 554 114 545T116 523Z" />
<glyph unicode="V" glyph-name="V" horiz-adv-x="278" d="M50 529Q40 454 48 315T75 104Q87 53 116 25Q130 12 143 12Q159 13 176 33Q190 49 200 75T214 117T225 170L231 196Q234 208 234 211T236 223T238 239T241 265Q253 385 253 511Q253 526 268 526T283 511Q283
383 271 263Q269 244 268 236L266 218Q265 210 264 206L260 190Q257 177 255 164Q254 163 252 150T249 134T245 119T241 103T237 87T231 71T225 56T217 40L208 26Q204 19 198 13Q173 -17 144 -18Q119 -18 96 4Q61 37 45 96Q26 172 18 313T20 533Q21 539 26 543T37
546T47 540T50 529Z" />
<glyph unicode="W" glyph-name="W" horiz-adv-x="634" d="M112 503Q90 476 76 399Q61 320 64 240Q68 151 92 97Q119 40 164 38Q224 35 256 141Q262 163 267 191T275 234L281 283Q285 316 285 317Q289 349 292 381Q293 416 298 445Q298 446 298 446T299 448L301
452Q302 454 305 456Q311 460 317 458T326 451Q327 450 328 448V444V442V435Q326 420 326 419L322 379Q321 294 346 211Q388 72 472 39Q482 35 497 33Q513 30 519 32Q558 45 579 103Q599 156 600 237Q602 310 589 382Q576 453 557 488Q550 501 563 508T583 502Q605
463 619 388Q632 314 630 237Q628 150 607 92Q581 22 529 4Q516 -1 493 3Q474 6 460 11Q363 50 317 202Q311 223 307 244Q298 177 284 132Q246 4 162 8Q99 11 65 85Q38 144 34 239Q31 324 46 405Q62 488 88 521Q97 533 109 524T112 503Z" />
<glyph unicode="X" glyph-name="X" horiz-adv-x="367" d="M181 380Q117 468 36 516Q23 524 31 537T52 542Q136 491 201 403Q274 484 365 543Q378 551 386 538T381 517Q291 459 219 378Q273 297 305 201T344 12Q344 6 340 1T330 -4T319 0T314 10Q308 97 278 187T198
354Q63 188 63 13Q63 -2 48 -2T33 13Q33 203 181 380Z" />
<glyph unicode="Y" glyph-name="Y" horiz-adv-x="335" d="M93 525Q62 485 55 417Q45 326 83 274T176 220Q232 217 272 264T309 401Q306 458 284 519Q282 525 284 530T293 538T304 538T312 529Q336 464 339 403Q343 313 305 257T206 191Q213 106 213 12Q213 -3
198 -3T183 12Q183 106 176 190H175Q105 193 60 255T25 421Q33 496 69 543Q78 555 90 546T93 525Z" />
<glyph unicode="Z" glyph-name="Z" horiz-adv-x="413" d="M51 518Q73 520 189 524Q227 525 309 526Q338 527 363 527H379H383H385H387H388Q389 527 390 526L394 524Q399 521 400 514Q400 511 400 508T398 504L397 503L395 501L393 499Q391 498 390 497L380 491L350
473Q302 445 286 433Q217 383 161 320Q201 324 233 328Q239 329 244 325T250 315T247 304T237 298Q195 293 134 288Q81 220 64 159Q43 81 79 49Q110 21 180 29Q247 36 317 70Q389 105 424 146Q433 157 444 148T446 126Q408 81 332 44T183 -1Q99 -10 58 27Q10 71
36 167Q51 224 94 285L50 282Q44 282 40 286T35 296T38 306T48 312L119 317Q182 395 268 457Q285 469 331 497Q320 496 310 496Q228 495 189 494Q75 490 53 488Q47 487 43 491T37 501T40 512T51 518Z" />
<glyph unicode="[" glyph-name="bracketleft" horiz-adv-x="242" d="M241 498Q218 500 161 498Q133 497 115 495Q105 494 99 493H97V491Q95 484 93 472Q90 450 86 413L82 371Q79 348 78 333T76 314Q71 272 68 127Q68 56 69 10Q70 -15 72 -31T75 -50Q91 -81 144
-88Q184 -92 236 -83Q243 -82 248 -85T254 -95T252 -107T242 -113Q184 -123 141 -117Q71 -109 49 -64Q44 -55 42 -35Q40 -19 39 9Q37 58 39 128Q41 274 46 318Q47 322 48 337T52 374L56 416Q60 454 64 476Q66 490 68 498Q69 503 70 506Q73 512 77 516Q82 520 92
522Q100 524 111 525Q132 527 160 528Q219 530 243 528Q250 527 254 523T257 512T252 501T241 498Z" />
<glyph unicode="\" glyph-name="backslash" horiz-adv-x="197" d="M51 548Q62 451 125 280Q127 273 138 243T153 202L166 166Q175 139 179 124L191 88Q198 66 202 48T211 10Q212 4 209 -1T199 -7T188 -6T181 4Q178 22 174 40T163 80L151 116Q147 130 138 156T125
191T111 232T96 270Q32 444 21 544Q20 550 24 555T34 561T45 558T51 548Z" />
<glyph unicode="]" glyph-name="bracketright" horiz-adv-x="155" d="M32 522Q39 520 52 520Q67 519 73 518Q101 514 119 496Q146 470 157 418T168 174Q168 88 164 27Q159 -45 147 -66Q143 -74 133 -78Q127 -81 117 -84Q102 -87 77 -89Q56 -90 9 -90Q-6 -90 -6
-75T9 -60Q55 -60 75 -59Q97 -57 110 -54Q117 -53 120 -51H121Q129 -34 134 29Q138 89 138 174Q138 363 127 412Q118 455 99 474Q87 486 69 488Q64 489 50 490T26 492Q20 493 17 498T14 509T20 519T32 522Z" />
<glyph unicode="^" glyph-name="asciicircum" horiz-adv-x="246" d="M161 505Q171 475 185 444T220 375Q239 339 250 314Q256 301 243 295T222 302Q214 320 186 375T145 462Q120 385 65 289Q57 277 45 284T39 305Q105 418 127 509Q129 515 134 518T146 520T155
513Q159 510 161 505Z" />
<glyph unicode="_" glyph-name="underscore" horiz-adv-x="348" d="M-9 -60Q62 -53 169 -55Q186 -55 249 -56T347 -58Q362 -58 362 -73T347 -88Q313 -88 250 -87T169 -85Q63 -83 -7 -90Q-13 -91 -17 -87T-23 -77T-20 -66T-9 -60Z" />
<glyph unicode="`" glyph-name="grave" horiz-adv-x="130" d="M71 536Q77 500 136 467Q149 460 142 447T122 441Q50 481 41 530Q40 537 43 542T53 548T65 546T71 536Z" />
<glyph unicode="a" glyph-name="a" horiz-adv-x="357" d="M311 178V188Q307 196 294 205Q264 225 217 231Q165 238 123 221T64 161Q48 119 75 83T155 31Q202 14 248 28T310 85Q312 133 311 166Q309 172 311 178ZM93 356Q138 395 209 395Q317 395 337 237Q339 217
340 195Q344 184 341 173Q342 140 341 94Q343 89 341 84L340 80Q338 27 338 17Q338 2 323 2T308 17V29Q278 1 232 -5T146 2Q86 20 50 66T36 171Q50 210 82 232T148 260T220 261Q272 255 307 232V233Q290 365 209 365Q149 365 113 334Q101 324 92 335T93 356Z" />
<glyph unicode="b" glyph-name="b" horiz-adv-x="383" d="M78 28L79 24Q80 18 77 13T67 7T56 8T49 18Q27 112 33 253Q30 270 35 288Q36 312 39 361T45 449T47 520Q47 535 62 535T77 520Q77 465 68 339Q71 341 74 344Q121 381 186 387Q258 394 308 356Q367 311
376 218Q384 134 337 78T219 6Q150 -10 98 16Q87 21 78 28ZM63 254V252Q60 176 64 119Q65 117 65 115Q67 64 111 43Q154 21 212 35Q273 49 313 96Q353 144 346 216Q339 295 290 332Q249 363 189 357Q132 352 93 321Q71 303 64 282Q64 268 63 255V254Z" />
<glyph unicode="c" glyph-name="c" horiz-adv-x="343" d="M328 342Q273 369 224 364T138 334T78 268Q56 228 55 186T80 103T159 38Q202 21 247 28T334 60Q347 68 355 55T350 34Q320 17 287 7T216 -4T147 10Q85 39 55 87T25 186T52 283Q78 329 121 358T221 394T342
368Q355 362 349 349T328 342Z" />
<glyph unicode="d" glyph-name="d" horiz-adv-x="373" d="M310 263Q284 328 236 349T140 351Q90 330 63 274T50 140Q55 113 73 89T118 49Q178 14 229 43Q249 55 270 80T304 131Q306 136 312 138Q308 195 310 263ZM360 546Q359 529 352 446T343 332T340 236T343
122T358 25Q359 19 356 14T346 8T335 9T328 19Q321 54 316 93Q282 39 243 17Q207 -1 172 1T103 23Q72 41 49 71T20 134Q4 222 36 288T128 379Q174 400 226 386T312 321Q314 355 317 394T324 478T330 548Q331 554 335 558T346 562T356 557T360 546Z" />
<glyph unicode="e" glyph-name="e" horiz-adv-x="376" d="M67 229Q96 192 152 189T257 210Q310 234 327 268Q344 301 314 329Q291 350 237 349Q180 348 135 314T67 229ZM57 196Q44 142 65 100Q89 51 154 38Q204 27 271 40Q323 50 368 104Q378 115 389 106T392
84Q340 22 277 10Q204 -3 148 8Q69 25 38 87Q10 142 30 212Q49 280 105 328Q161 377 237 379Q302 380 334 351Q381 308 354 255Q331 211 270 183Q235 167 198 161T122 163T57 196Z" />
<glyph unicode="f" glyph-name="f" horiz-adv-x="267" d="M250 437Q248 469 231 490T191 516T147 509T115 463Q102 424 100 362Q150 364 176 364Q191 364 191 349T176 334Q150 334 100 332Q100 296 104 250Q104 248 115 128Q121 58 121 18Q121 3 106 3T91 18Q91
56 85 126Q74 246 74 248Q70 295 70 330Q41 329 20 329Q5 329 5 344T20 359Q41 359 70 360Q72 429 87 473Q101 516 132 534T198 546Q231 538 254 509T280 439Q280 433 276 428T266 423T255 427T250 437Z" />
<glyph unicode="g" glyph-name="g" horiz-adv-x="373" d="M363 375Q362 339 366 263Q372 175 372 136Q372 -24 320 -98Q295 -133 245 -146T143 -150Q90 -140 52 -111T14 -34Q14 -19 29 -19T44 -34Q44 -66 73 -89T148 -120T235 -118T296 -80Q342 -14 342 136Q342
148 341 162Q323 98 284 59T196 12Q130 2 80 50T25 188Q21 275 63 329T171 397Q218 406 263 389T333 330Q332 356 333 375Q333 382 337 386T348 390T359 386T363 375ZM323 272Q313 326 271 351T176 367Q123 357 88 312T55 190Q59 111 99 73T192 42Q246 51 285 108T325
266V267Q324 270 323 272Z" />
<glyph unicode="h" glyph-name="h" horiz-adv-x="364" d="M61 555Q67 525 68 492T69 411T67 350V330Q102 375 156 393Q185 401 213 400T268 383T314 338Q334 305 344 264T353 170T350 89T340 6Q339 0 334 -4T323 -7T313 -1T310 10Q317 62 319 92T323 170T315 255T288
322Q268 356 234 366T165 364Q130 353 103 326T67 265Q69 128 76 9Q76 3 72 -2T62 -7T51 -3T46 7Q39 125 38 261Q37 265 37 268V269V350Q37 365 38 412T39 490T31 549Q30 555 33 560T43 566T54 565T61 555Z" />
<glyph unicode="i" glyph-name="i" horiz-adv-x="96" d="M54 519Q45 500 47 479Q48 467 53 463Q57 459 68 462Q72 462 77 472Q83 483 83 496Q82 507 76 513Q69 519 54 519ZM53 549Q79 549 95 536Q112 522 113 496Q113 476 103 458Q92 437 76 432Q49 426 33 441Q19
453 17 476Q14 509 29 535Q30 543 37 546Q44 553 53 549ZM81 381Q81 319 78 194T75 7Q75 -8 60 -8T45 7Q45 69 48 194T51 381Q51 396 66 396T81 381Z" />
<glyph unicode="j" glyph-name="j" horiz-adv-x="135" d="M76 519Q67 500 69 479Q70 467 75 463Q79 459 90 462Q94 462 99 472Q105 483 105 496Q104 507 98 513Q91 519 76 519ZM75 549Q101 549 117 536Q134 522 135 496Q135 476 125 458Q114 437 98 432Q71 426
55 441Q41 453 39 476Q36 509 51 535Q52 543 59 546Q66 553 75 549ZM111 371Q130 314 129 229T105 65Q80 -22 31 -81T-92 -152Q-98 -153 -103 -149T-109 -139T-106 -128T-96 -122Q-35 -113 9 -61T76 73Q97 148 98 229T83 361Q81 367 84 372T92 380T103 379T111
371Z" />
<glyph unicode="k" glyph-name="k" horiz-adv-x="345" d="M69 519Q66 421 71 238L88 264Q152 362 152 409Q152 424 167 424T182 409Q182 357 129 273Q153 283 186 289Q249 299 287 272Q318 249 331 199Q338 174 340 142T342 71T344 18Q344 12 340 7T330 2T319
6T314 16Q313 34 313 71T310 138T302 191Q292 231 269 248Q242 268 192 259Q152 252 126 238T79 196L77 193L76 192V191H75Q74 189 72 188Q74 87 74 24Q74 9 59 9T44 24Q44 80 40 253T39 519Q39 526 43 530T54 534T65 530T69 519Z" />
<glyph unicode="l" glyph-name="l" horiz-adv-x="101" d="M88 541Q76 476 72 452T60 368T52 274T52 191T64 101Q73 61 90 21Q96 7 82 1T62 9Q47 44 38 85T24 158T21 240L24 316Q25 340 33 397T44 470T58 547Q59 553 64 556T75 559T85 553T88 541Z" />
<glyph unicode="m" glyph-name="m" horiz-adv-x="445" d="M405 368Q413 317 414 185Q416 72 431 8Q432 2 429 -3T419 -9T408 -8T401 2Q386 68 384 185Q382 280 382 288Q339 189 274 156Q225 131 176 152Q123 175 77 247Q68 261 60 277Q61 261 63 231T67 190Q76
75 69 4Q68 -3 64 -7T53 -10T42 -5T39 6Q46 74 37 188Q26 330 26 372Q26 376 28 379V380Q28 395 43 395T58 380Q58 333 103 263Q144 199 187 180Q224 164 261 183Q296 201 327 248T376 358V359L375 364Q374 370 378 375T388 381T399 378T405 368Z" />
<glyph unicode="n" glyph-name="n" horiz-adv-x="357" d="M33 378Q33 384 37 388T48 393Q63 393 63 378V377V286Q66 264 73 233Q90 152 135 96Q179 40 225 30Q269 20 295 56Q328 102 324 206Q321 295 281 365Q274 378 287 385T307 379Q350 304 354 208Q358 93
319 39Q282 -14 219 0Q173 11 131 55T62 164V3Q62 -12 47 -12T32 3L33 284Q26 337 33 378Z" />
<glyph unicode="o" glyph-name="o" horiz-adv-x="376" d="M227 389Q232 392 236 391Q288 383 323 348T372 267T381 172Q373 93 322 46Q264 -8 175 5Q130 12 98 38T51 101T32 180T38 259Q60 348 125 381Q171 404 227 389ZM283 332Q199 384 138 354Q85 327 67 252Q58
217 62 181T78 114T117 62T179 35Q255 24 302 68Q344 107 351 175Q356 221 342 263T297 331Q290 328 283 332Z" />
<glyph unicode="p" glyph-name="p" horiz-adv-x="364" d="M59 122Q61 119 62 116Q66 80 110 65Q155 50 214 62Q276 75 314 112T348 200Q341 266 297 300T191 337Q133 340 92 317Q65 301 57 279Q54 214 59 122ZM25 260Q24 273 28 285Q30 333 37 374Q38 381 43 384T54
387T64 381T67 370Q64 351 62 333Q69 338 77 343Q126 370 192 367Q236 365 274 349T342 295T378 204Q385 137 337 93T220 33Q153 19 101 37Q79 44 64 56Q74 -82 74 -144Q74 -159 59 -159T44 -144Q44 -87 35 48T26 254Q25 257 25 260Z" />
<glyph unicode="q" glyph-name="q" horiz-adv-x="364" d="M356 384Q351 292 354 160Q361 155 360 147Q359 132 356 119Q363 -85 363 -139Q363 -154 348 -154T333 -139Q333 -72 328 56Q304 23 267 7T189 -8Q126 -7 77 32Q28 72 24 137Q18 230 67 296T185 378Q258
394 305 347Q315 336 323 323Q324 356 326 386Q326 392 331 396T342 400T352 395T356 384ZM318 190Q326 283 284 326Q248 361 192 349Q133 336 91 279T54 139Q57 87 97 55T190 22Q238 20 275 45T326 122V123Q325 152 324 177Q317 182 318 190Z" />
<glyph unicode="r" glyph-name="r" horiz-adv-x="245" d="M68 226Q66 82 66 23Q66 8 51 8T36 23Q36 84 37 205T39 387Q39 402 54 402T69 387Q69 338 68 271Q154 364 238 392Q244 394 249 392T257 383T257 372T248 364Q160 334 70 228L68 226Z" />
<glyph unicode="s" glyph-name="s" horiz-adv-x="369" d="M248 377Q237 367 215 344T180 310L151 285Q195 296 243 286Q290 276 325 246Q375 202 367 124Q361 65 320 34T223 1Q169 0 120 24T46 92Q39 105 52 111T72 106Q92 70 134 50T222 30Q268 32 300 56T337
128Q344 191 305 225Q275 250 234 258T153 255Q150 255 136 248L108 234Q101 230 96 228Q89 226 84 226Q72 226 68 235Q66 242 70 249Q72 253 79 261L122 298L160 331Q171 341 193 364Q216 388 228 398Q238 408 248 398T248 377Z" />
<glyph unicode="t" glyph-name="t" horiz-adv-x="209" d="M97 333Q56 335 29 344Q23 346 21 351T20 363T27 371T39 372Q61 365 98 363Q101 463 112 519Q114 525 119 528T130 531T139 524T142 513Q131 460 128 363Q172 364 205 373Q211 374 216 371T223 362T222
351T213 343Q176 334 127 333Q126 283 129 239Q134 147 153 92Q173 34 207 28Q213 27 216 22T219 11T213 1T201 -2Q151 7 125 83Q104 141 99 237Q96 282 97 333Z" />
<glyph unicode="u" glyph-name="u" horiz-adv-x="374" d="M100 377Q67 277 69 211Q71 160 78 127T110 67Q139 37 184 30T270 42T328 99Q378 209 307 364Q301 378 315 384T335 376Q411 208 356 87Q334 39 284 16T179 0T88 47Q68 69 57 100T43 153T39 211Q37 282
72 387Q74 393 79 395T91 396T99 389T100 377Z" />
<glyph unicode="v" glyph-name="v" horiz-adv-x="261" d="M54 365Q54 245 65 170Q75 108 92 69Q110 28 136 21T184 49Q204 83 218 152Q238 252 238 365Q238 380 253 380T268 365Q268 249 248 146Q233 72 209 33Q176 -21 128 -7Q89 3 64 57Q46 97 36 165Q24 244
24 365Q24 380 39 380T54 365Z" />
<glyph unicode="w" glyph-name="w" horiz-adv-x="492" d="M113 386Q89 372 72 316Q54 257 56 189Q57 117 80 71Q104 22 148 19Q183 16 203 60Q212 80 227 149Q233 178 235 201Q235 207 236 225V230V234V235V236V237V238Q236 239 237 240Q238 243 240 245Q244 250
250 250Q257 251 262 246L265 240Q266 238 266 237V236V234V233Q266 161 289 101Q318 27 371 19Q380 18 392 19T408 23Q435 43 446 87T453 188Q448 242 432 290T392 362Q382 373 393 383T414 382Q441 354 459 301T483 191Q488 129 475 78T426 -1Q416 -9 395 -11Q379
-13 367 -11Q296 0 261 90Q256 104 252 119Q242 74 230 47Q202 -15 146 -11Q85 -6 53 58Q27 110 26 189Q24 261 43 324Q64 393 99 412Q112 419 119 406T113 386Z" />
<glyph unicode="x" glyph-name="x" horiz-adv-x="327" d="M163 255Q106 321 32 356Q18 363 24 376T44 384Q123 346 183 278Q256 356 327 377Q333 379 338 376T345 367T344 356T335 349Q271 329 202 255Q236 212 265 155L278 132L292 104Q297 95 303 80T313 50T318
20Q318 14 314 9T304 4T293 8T288 18Q287 31 285 43T276 68T266 90L252 116Q243 134 239 141Q212 192 182 232L168 214Q91 113 65 17Q64 11 59 8T47 6T38 13T37 25Q64 127 144 232L163 255Z" />
<glyph unicode="y" glyph-name="y" horiz-adv-x="335" d="M101 369Q92 334 86 274T85 160Q91 96 113 63Q137 28 180 34Q227 40 253 119Q260 140 265 164Q270 189 275 217T281 254Q288 287 292 320V322V326V332Q292 338 293 341T296 347Q300 353 309 353Q315 353
319 348Q321 347 322 345Q326 339 327 327Q328 318 329 304Q330 283 329 248Q328 231 326 190Q325 161 325 154Q328 56 335 -47Q337 -79 344 -135L346 -152Q348 -162 348 -163Q349 -170 349 -174Q348 -179 346 -183Q339 -192 329 -190Q323 -188 318 -183Q317 -181
314 -177L306 -163Q291 -141 277 -125Q226 -71 150 -71Q119 -71 103 -75T70 -97Q58 -109 55 -116T52 -138T37 -153T22 -138Q22 -117 28 -104Q33 -92 48 -77Q71 -54 92 -48T150 -41Q239 -41 299 -104Q306 -112 312 -120Q305 -53 305 -49Q298 47 295 154V162Q289
132 281 110Q249 13 184 4Q123 -4 89 46Q62 85 55 157Q49 215 56 277Q62 340 73 377Q74 383 79 386T91 388T100 381T101 369Z" />
<glyph unicode="z" glyph-name="z" horiz-adv-x="330" d="M72 375Q98 373 189 378Q209 379 247 382Q261 382 266 383H272H274H275H277Q282 381 285 378Q293 369 289 357Q287 350 281 343Q272 332 255 317Q244 307 227 294T209 279Q177 251 158 233Q167 233 183
233T207 232Q213 232 217 228T221 217T217 206T205 202Q190 203 128 202L109 181Q51 114 49 68Q48 49 75 38Q103 27 155 26Q199 26 245 32T313 47Q319 49 324 47T332 38T332 27T323 19Q300 10 251 3T154 -4Q97 -3 64 11Q17 29 19 70Q22 126 86 201L88 203Q63 203
43 206Q37 207 33 212T30 223T36 233T47 236Q75 232 115 232Q142 260 189 301Q190 302 207 316L235 339Q243 346 248 352Q212 349 190 348Q97 343 70 345Q64 346 60 350T56 361T61 371T72 375Z" />
<glyph unicode="{" glyph-name="braceleft" horiz-adv-x="979" d="M729 600Q725 587 725 567Q727 512 757 448Q789 381 829 353Q870 324 904 353Q931 376 939 410T938 480T907 549Q872 600 828 616T744 602Q737 597 729 600ZM758 645Q804 663 851 639T932 566Q956
529 967 488T968 404T924 331Q871 286 812 328Q765 361 730 435Q697 505 695 566Q693 641 743 651Q752 652 758 645ZM531 272L521 224Q521 223 515 195T505 152Q549 197 531 272ZM471 376Q469 345 454 260Q438 179 443 133Q457 129 470 131V133Q473 149 492 231Q505
289 509 326Q505 334 500 341Q487 361 471 376ZM442 398Q416 414 390 414Q387 391 380 350T369 276T364 213Q387 174 412 152Q411 195 424 266Q442 364 442 398ZM359 408Q347 403 337 394Q330 389 322 392Q318 379 318 359Q319 319 338 270Q341 297 349 345T359
408ZM351 437Q397 455 444 431T525 358Q549 321 560 280T561 196T517 123Q464 78 405 120Q358 153 323 227Q290 297 288 358Q286 433 336 443Q345 444 351 437ZM203 379Q200 351 200 342T204 307T211 264Q217 199 217 151Q267 117 374 53Q387 45 379 32T358 27Q261
85 217 115Q213 32 190 -27Q188 -32 182 -34T171 -35T163 -27T162 -15Q186 44 187 135Q79 210 27 277Q18 289 30 298T51 295Q96 237 187 172Q186 211 181 262Q180 272 176 300T171 341T173 385Q175 391 180 394T191 397T200 390T203 379ZM608 581Q595 544 613 477L624
438Q632 413 636 402L659 384Q770 301 818 262Q829 252 820 241T798 238Q751 278 646 357Q650 326 655 269T663 195Q664 189 660 184T650 178T639 181T633 191Q631 207 626 266T615 358Q613 369 609 384Q532 442 483 485Q472 494 481 505T503 507Q542 473 595 433Q588
455 584 469Q564 545 580 591Q582 597 587 599T599 600T607 593T608 581ZM789 583T789 568T774 553T759 568T774 583ZM798 517T798 502T783 487T768 502T783 517ZM859 578T859 563T844 548T829 563T844 578ZM875 522T875 507T860 492T845 507T860 522ZM852 450T852
435T837 420T822 435T837 450ZM934 492T934 477T919 462T904 477T919 492ZM923 430T923 415T908 400T893 415T908 430ZM878 392T878 377T863 362T848 377T863 392Z" />
<glyph unicode="|" glyph-name="bar" horiz-adv-x="108" d="M77 -135Q42 -118 35 -90Q30 -69 41 -39Q44 -30 50 -15T60 8T65 29T66 51Q65 61 51 87Q35 115 36 136T56 195Q71 223 69 243Q67 262 51 304Q33 349 31 376Q30 401 48 442Q63 475 61 492Q60 501 58 507Q57
513 54 519L50 530Q44 552 53 589Q55 595 60 598T72 600T81 593T83 581Q75 553 79 539Q79 537 82 530T87 515T91 496Q94 471 76 430Q60 395 61 378Q62 356 79 315Q97 269 99 245Q101 216 83 181Q67 150 66 135Q65 123 77 101Q93 71 96 55Q98 42 95 26T88 -1T78
-28L69 -49Q61 -71 64 -83Q68 -97 91 -109Q104 -115 98 -128T77 -135Z" />
<glyph unicode="}" glyph-name="braceright" horiz-adv-x="795" d="M783 569Q796 566 795 553Q796 542 786 538H785Q763 495 769 447Q770 441 766 436T756 430T745 433T739 443Q734 481 745 518Q696 490 634 433Q639 404 635 366Q630 318 605 238Q604 235 592
175Q587 149 584 135L581 121Q580 118 579 116Q577 112 575 109Q569 103 558 102Q552 101 543 103Q530 104 509 110Q482 117 458 126Q350 165 284 206L273 214Q241 191 193 163Q215 141 237 132Q251 126 245 112T225 104Q195 117 167 148L146 136L182 89Q191 77
179 68T158 71L120 120L107 113Q129 78 142 51Q149 37 136 31T116 37Q102 64 81 97L52 79Q40 70 32 82T36 103L65 122Q31 174 21 191Q13 204 26 212T47 207Q57 190 91 138L102 145Q75 182 59 214Q52 228 65 234T85 228Q101 197 128 160L148 171Q123 205 108 244Q106
249 108 255T116 263T128 263T136 254Q150 218 174 186Q218 212 248 233Q171 295 180 364Q188 422 236 434Q274 443 328 419Q369 400 408 367Q405 403 420 440T463 502Q494 531 529 532Q569 533 603 497Q616 483 624 465Q684 518 734 546Q702 554 663 569Q658 571
656 577T655 588T663 596T675 597Q730 575 774 570Q779 571 783 569ZM304 319Q313 297 317 287T331 266T353 249Q367 243 361 229T341 221Q324 229 311 243L299 233L300 232Q363 192 468 154Q491 146 517 139Q536 134 547 132H552Q553 135 555 142Q557 152 563
181Q575 242 577 248Q601 324 605 369Q608 390 607 409L562 368Q561 367 559 366Q565 346 566 325Q566 318 562 314T552 309T541 313T536 323Q534 362 509 403Q501 416 514 424T535 419T548 395L600 444Q594 463 581 477Q557 502 530 502Q506 501 484 480T448 427T438
367Q440 351 447 327Q465 305 473 284Q475 279 473 273T464 265Q456 262 449 267Q436 264 432 278Q430 283 426 295T420 312Q377 363 315 391Q271 411 243 405T210 360Q202 305 273 251L294 267Q288 279 276 307Q274 313 276 319T284 327T296 327T304 319Z" />
<glyph unicode="~" glyph-name="asciitilde" horiz-adv-x="387" d="M9 233Q17 252 30 262T64 283Q112 305 165 287Q175 284 192 278T222 267T250 261Q281 257 315 269T377 305Q389 315 398 304T397 283Q366 256 326 241T246 231Q230 233 214 238T180 250T156 259Q114
273 76 255Q59 247 51 240T37 221Q35 216 29 214T18 213T10 221T9 233Z" />
</font>
</defs>
</svg>
